HIERARCHY
ROOT Hips
{
	OFFSET 0.00000 0.00000 0.00000
	CHANNELS 6 Xposition Yposition Zposition Zrotation Yrotation Xrotation 
	JOINT LHipJoint
	{
		OFFSET 0 0 0
		CHANNELS 3 Zrotation Yrotation Xrotation
		JOINT LeftUpLeg
		{
			OFFSET 1.37590 -1.78394 0.89329
			CHANNELS 3 Zrotation Yrotation Xrotation
			JOINT LeftLeg
			{
				OFFSET 2.47928 -6.81178 0.00000
				CHANNELS 3 Zrotation Yrotation Xrotation
				JOINT LeftFoot
				{
					OFFSET 2.63345 -7.23535 0.00000
					CHANNELS 3 Zrotation Yrotation Xrotation
					JOINT LeftToeBase
					{
						OFFSET 0.23938 -0.65768 2.27012
						CHANNELS 3 Zrotation Yrotation Xrotation
						End Site
						{
							OFFSET 0.00000 -0.00000 1.18363
						}
					}
				}
			}
		}
	}
	JOINT RHipJoint
	{
		OFFSET 0 0 0
		CHANNELS 3 Zrotation Yrotation Xrotation
		JOINT RightUpLeg
		{
			OFFSET -1.33617 -1.78394 0.89329
			CHANNELS 3 Zrotation Yrotation Xrotation
			JOINT RightLeg
			{
				OFFSET -2.56922 -7.05888 0.00000
				CHANNELS 3 Zrotation Yrotation Xrotation
				JOINT RightFoot
				{
					OFFSET -2.56568 -7.04915 0.00000
					CHANNELS 3 Zrotation Yrotation Xrotation
					JOINT RightToeBase
					{
						OFFSET -0.27533 -0.75646 2.18105
						CHANNELS 3 Zrotation Yrotation Xrotation
						End Site
						{
							OFFSET -0.00000 -0.00000 1.15233
						}
					}
				}
			}
		}
	}
	JOINT LowerBack
	{
		OFFSET 0 0 0
		CHANNELS 3 Zrotation Yrotation Xrotation
		JOINT Spine
		{
			OFFSET 0.06190 2.15152 -0.00935
			CHANNELS 3 Zrotation Yrotation Xrotation
			JOINT Spine1
			{
				OFFSET 0.06334 2.15332 0.00872
				CHANNELS 3 Zrotation Yrotation Xrotation
				JOINT Neck
				{
					OFFSET 0 0 0
					CHANNELS 3 Zrotation Yrotation Xrotation
					JOINT Neck1
					{
						OFFSET -0.04202 1.66908 0.23524
						CHANNELS 3 Zrotation Yrotation Xrotation
						JOINT Head
						{
							OFFSET 0.07510 1.69357 -0.24440
							CHANNELS 3 Zrotation Yrotation Xrotation
							End Site
							{
								OFFSET 0.02556 1.71719 -0.11000
							}
						}
					}
				}
				JOINT LeftShoulder
				{
					OFFSET 0 0 0
					CHANNELS 3 Zrotation Yrotation Xrotation
					JOINT LeftArm
					{
						OFFSET 3.67168 1.26306 -0.41342
						CHANNELS 3 Zrotation Yrotation Xrotation
						JOINT LeftForeArm
						{
							OFFSET 4.68510 -0.00000 -0.00000
							CHANNELS 3 Zrotation Yrotation Xrotation
							JOINT LeftHand
							{
								OFFSET 3.39626 -0.00000 -0.00000
								CHANNELS 3 Zrotation Yrotation Xrotation
								JOINT LeftFingerBase
								{
									OFFSET 0 0 0
									CHANNELS 3 Zrotation Yrotation Xrotation
									JOINT LeftHandIndex1
									{
										OFFSET 0.48608 -0.00000 -0.00000
										CHANNELS 3 Zrotation Yrotation Xrotation
										End Site
										{
											OFFSET 0.39189 -0.00000 -0.00000
										}
									}
								}
								JOINT LThumb
								{
									OFFSET 0 0 0
									CHANNELS 3 Zrotation Yrotation Xrotation
									End Site
									{
										OFFSET 0.39787 -0.00000 0.39787
									}
								}
							}
						}
					}
				}
				JOINT RightShoulder
				{
					OFFSET 0 0 0
					CHANNELS 3 Zrotation Yrotation Xrotation
					JOINT RightArm
					{
						OFFSET -3.04136 1.42992 -0.76390
						CHANNELS 3 Zrotation Yrotation Xrotation
						JOINT RightForeArm
						{
							OFFSET -5.55576 -0.00000 -0.00000
							CHANNELS 3 Zrotation Yrotation Xrotation
							JOINT RightHand
							{
								OFFSET -3.32774 -0.00000 -0.00000
								CHANNELS 3 Zrotation Yrotation Xrotation
								JOINT RightFingerBase
								{
									OFFSET 0 0 0
									CHANNELS 3 Zrotation Yrotation Xrotation
									JOINT RightHandIndex1
									{
										OFFSET -0.50763 -0.00000 -0.00000
										CHANNELS 3 Zrotation Yrotation Xrotation
										End Site
										{
											OFFSET -0.40926 -0.00000 -0.00000
										}
									}
								}
								JOINT RThumb
								{
									OFFSET 0 0 0
									CHANNELS 3 Zrotation Yrotation Xrotation
									End Site
									{
										OFFSET -0.41551 -0.00000 0.41551
									}
								}
							}
						}
					}
				}
			}
		}
	}
}
MOTION
Frames: 14
Frame Time: 0.0606061
0.00 0.00 0.00 0 0 0 0 0 0 -21 0 0 0 0 0 0 0 0 0 0 0 0 0 0 21 0 0 0 0 0 0 0 0 0 0 0 0 0 0 0 0 0 0 0 0 0 0 -16 0 0 21 0 0 11 0 0 0 -8 0 0 0 0 0 0 0 0 0 0 0 0 0 0 0 0 0 0 0 0 8 0 0 0 0 0 0 0 0 0 0 0 0 0 0 0 0 0
0.00 0.00 0.00 -34.2494 -79.5554 41.4266 0.0000 0.0000 0.0000 -11.2037 -8.6078 -2.9803 5.6071 14.0364 43.3836 1.0537 -4.1297 21.2946 0.1142 -2.1783 -5.9988 0.0000 0.0000 0.0000 25.2943 11.5986 -23.0482 -1.5420 -7.8387 22.2253 0.3781 -11.1854 -7.1455 -0.9098 -6.0780 17.0108 3.2181 -1.9318 -1.2648 4.7105 -2.6583 -1.8288 3.0341 -1.3825 -1.0908 -7.5750 -7.0292 -8.9891 9.9340 -9.6539 8.9788 3.5821 -4.4676 5.0247 0.0000 -0.0000 0.0000 -89.9010 -5.5954 28.7488 16.6141 -26.3463 -3.9145 -0.0000 -0.0000 22.3821 14.0551 21.1284 5.1564 -7.1250 0.0000 -0.0000 -14.6815 51.1134 -2.2524 0.0000 -0.0000 0.0000 71.4912 5.7246 35.6348 -88.2642 59.9886 -58.4968 0.0000 0.0000 9.8163 -22.3276 -24.6092 9.7050 7.1250 -0.0000 -0.0000 7.8053 -56.1521 -2.1442
0.00 0.00 0.00 -37.4202 -78.2399 43.7725 0.0000 0.0000 0.0000 -8.7329 -9.7429 -8.7110 8.1230 16.2090 53.0045 0.6941 -3.3819 17.3228 0.1833 -2.7574 -7.6040 0.0000 0.0000 0.0000 28.3472 9.9317 -18.9991 -1.4202 -7.5364 21.3147 0.2713 -10.5492 -9.4053 -0.8247 -5.7940 16.1879 4.3223 -1.5172 -1.0723 4.7073 -2.1288 -1.3057 2.4102 -1.1242 -0.7164 -7.7156 -7.2635 -9.0691 10.3627 -9.9156 8.0583 3.7187 -4.5879 4.8101 -0.0000 -0.0000 0.0000 -89.6992 -4.1695 21.7573 13.5624 -22.1056 -2.6612 -0.0000 -0.0000 28.7021 10.9235 21.6331 4.0697 -7.1250 0.0000 -0.0000 -17.9011 51.0938 -2.7628 -0.0000 -0.0000 0.0000 76.7693 2.2128 30.4610 -63.2828 57.1231 -37.0857 0.0000 0.0000 4.8486 -19.0381 -29.4709 9.6352 7.1250 -0.0000 -0.0000 13.9459 -60.3089 -5.2677
0.00 0.00 0.00 -41.1982 -78.3511 47.3294 0.0000 0.0000 0.0000 -6.1984 -10.7152 -21.2345 10.9211 17.8963 62.5252 -0.0159 -2.4798 2.0352 0.4778 -4.4327 -12.2973 0.0000 0.0000 0.0000 31.7990 8.3190 -11.0195 -0.9638 -6.2508 17.5139 0.1105 -10.1769 -12.5443 -0.7019 -5.3551 14.9243 4.2287 0.0035 -1.1135 4.2705 -0.1080 -0.9609 2.0161 -0.1016 -0.3598 -8.2739 -7.7163 -9.2092 10.6214 -10.3619 6.8802 3.8525 -4.8204 4.5589 -0.0000 0.0000 0.0000 -88.6853 -0.2648 1.4963 9.8983 -16.5804 -1.4458 -0.0000 -0.0000 38.6964 13.7370 19.7756 4.7281 -7.1250 0.0000 -0.0000 -14.4423 49.7340 -1.7175 -0.0000 0.0000 0.0000 83.8235 -1.6601 22.2219 -31.4972 42.1426 -12.4021 0.0000 0.0000 7.2760 -21.9231 -32.4633 12.1901 7.1250 -0.0000 -0.0000 12.8342 -63.9800 -5.9514
0.00 0.00 0.00 -54.0837 -79.3574 61.3138 0.0000 0.0000 0.0000 -2.9147 -11.6763 -34.2249 6.7025 15.0762 47.7402 0.2953 1.5414 -10.9451 0.6494 -5.1548 -14.3505 0.0000 0.0000 0.0000 34.9885 6.6265 -2.1141 -0.5704 -4.8370 13.4442 -0.2494 -8.2033 -15.7443 -0.3721 -3.9182 10.8466 6.1473 2.0176 -0.8821 3.3808 2.6017 -1.1460 0.0505 1.2348 -0.5678 -8.6977 -7.6859 -9.0378 10.0281 -10.0629 5.1780 3.7909 -4.7357 3.9725 -0.0000 0.0000 0.0000 -85.5211 9.0315 -12.6014 9.9862 -16.7180 -1.4710 -0.0000 -0.0000 35.1056 13.7917 19.9970 4.7984 -7.1250 0.0000 -0.0000 -14.4764 49.9602 -1.8035 -0.0000 0.0000 0.0000 87.3984 -4.2585 23.0505 -14.5114 23.4611 -3.0287 0.0000 0.0000 11.5428 -20.5900 -29.6566 10.5302 7.1250 -0.0000 -0.0000 12.3504 -60.8669 -4.8176
0.00 0.00 0.00 -63.1355 -80.0676 71.0577 0.0000 0.0000 0.0000 -1.8886 -11.7644 -34.3332 3.1318 10.9054 31.9616 0.1301 3.5605 -9.0750 0.6923 -5.3190 -14.8208 0.0000 0.0000 0.0000 35.4451 6.2404 0.1517 -0.5983 -4.9518 13.7711 -0.4340 -6.8705 -16.8281 -0.1614 -2.5881 7.1341 6.6630 2.7421 -0.9989 3.1043 3.5549 -1.1749 -0.4999 1.7086 -0.4427 -8.6850 -7.5601 -8.9741 9.7366 -9.8214 4.5156 3.7320 -4.6378 3.7223 0.0000 -0.0000 0.0000 -85.2366 11.5567 -17.0235 9.9459 -16.6550 -1.4594 -0.0000 -0.0000 35.4377 14.1718 20.5594 5.0676 -7.1250 0.0000 -0.0000 -14.3368 50.5731 -2.0047 0.0000 -0.0000 0.0000 87.8659 -4.5381 20.8903 -12.7213 20.8776 -2.3531 0.0000 0.0000 14.4307 -20.1558 -26.5124 9.3052 7.1250 -0.0000 -0.0000 11.0029 -57.6259 -3.4289
0.00 0.00 0.00 -71.6149 -80.2124 80.4023 0.0000 0.0000 0.0000 -0.2045 -13.5098 -31.7052 0.6755 5.2554 14.6384 0.0089 4.6367 -6.9296 0.7475 -5.5226 -15.4053 0.0000 0.0000 0.0000 35.7121 5.4973 1.8983 -0.6727 -5.2446 14.6075 -0.6291 -5.1714 -17.7537 -0.0314 -1.1441 3.1454 7.0636 3.0887 -1.5629 3.0729 3.9626 -1.3714 -0.7183 1.9065 -0.2779 -8.4631 -7.1849 -8.9122 9.2704 -9.3013 4.4662 3.6012 -4.3973 3.6147 0.0000 -0.0000 0.0000 -85.9032 13.8195 -20.7238 9.8222 -16.4610 -1.4241 -0.0000 -0.0000 35.3603 14.4923 21.3005 5.3640 -7.1250 0.0000 -0.0000 -14.3315 51.3544 -2.2827 0.0000 -0.0000 0.0000 87.2018 -4.7740 20.1445 -13.1648 21.5281 -2.5134 0.0000 0.0000 12.8797 -18.1171 -27.0453 8.4617 7.1250 -0.0000 -0.0000 13.4561 -57.7129 -4.2387
0.00 0.00 0.00 -95.4467 -82.2185 103.6610 0.0000 0.0000 0.0000 -3.5033 -15.7261 -31.4281 1.3599 7.3815 20.8506 -0.0282 2.9922 -0.7811 0.2155 -2.9885 -8.2467 0.0000 0.0000 0.0000 32.1616 4.5124 4.0435 -2.4733 -9.7892 28.2969 -0.5616 -1.7241 -14.8845 -0.4921 4.4980 -12.4820 5.3416 2.9971 -1.5487 2.3094 3.8866 -1.2817 -0.5546 1.8939 -0.2561 -7.1636 -6.3838 -10.1114 8.4471 -8.4015 6.9626 3.1543 -3.9065 4.3964 0.0000 0.0000 0.0000 -87.9847 12.6036 -28.7377 7.9218 -13.4261 -0.9339 -0.0000 -0.0000 47.8220 15.1162 18.8417 4.9857 -7.1250 0.0000 -0.0000 -12.7926 49.0171 -1.2865 0.0000 0.0000 0.0000 83.9197 -2.2879 18.6008 -17.0770 26.9591 -4.1222 0.0000 0.0000 9.0007 -14.6839 -26.3525 6.6348 7.1250 -0.0000 -0.0000 16.6255 -56.3143 -4.7041
0.00 0.00 0.00 -109.5070 -82.7749 116.4240 0.0000 0.0000 0.0000 -7.2924 -13.3408 -27.4144 1.7965 8.4287 24.0240 0.0004 0.8902 -1.3523 0.0018 0.2741 0.7532 0.0000 0.0000 0.0000 28.5893 3.1161 -1.9461 -5.3158 -13.7308 42.1698 0.1236 -6.5519 -0.2003 -0.0670 1.6706 -4.5962 4.8506 2.9532 -1.1248 1.8647 3.8762 -1.3087 -0.7638 1.8906 -0.5228 -6.5758 -6.1983 -10.3115 7.9996 -8.2993 8.7180 2.9098 -3.8405 4.9152 0.0000 0.0000 0.0000 -88.3603 8.3281 -30.2505 7.1849 -12.2231 -0.7703 -0.0000 -0.0000 53.9600 14.7405 19.3861 4.9911 -7.1250 0.0000 -0.0000 -13.3439 49.5021 -1.5053 0.0000 0.0000 0.0000 83.3272 -0.9666 17.4004 -18.9397 29.3437 -5.0013 0.0000 0.0000 7.4670 -15.8490 -28.2634 7.6564 7.1250 -0.0000 -0.0000 16.5812 -58.4028 -5.5333
0.00 0.00 0.00 -140.7890 -85.0446 146.3360 0.0000 0.0000 0.0000 -14.3732 -10.8132 -20.5044 1.6186 8.0219 22.7806 0.0607 -0.5369 -4.4927 0.0075 0.5608 1.5409 0.0000 0.0000 0.0000 21.8322 1.8769 -11.8656 -9.6528 -17.2099 58.3213 0.5125 -18.4379 7.6934 -0.1981 -2.8660 7.9058 1.7257 2.1992 -0.4605 0.9835 2.9320 -1.4375 0.0257 1.4458 -1.1794 -6.1643 -5.5890 -10.2949 7.7024 -7.5786 9.7496 2.8082 -3.4834 5.1490 -0.0000 0.0000 0.0000 -88.7616 3.3128 -16.3607 7.6684 -13.0140 -0.8759 -0.0000 -0.0000 47.5305 14.3984 20.5458 5.1485 -7.1250 0.0000 -0.0000 -14.1142 50.5958 -1.9804 -0.0000 0.0000 0.0000 81.4120 1.8866 21.5422 -21.7740 32.7207 -6.4632 0.0000 0.0000 7.6289 -16.2217 -27.6498 7.6892 7.1250 -0.0000 -0.0000 15.8053 -57.8919 -5.0704
0.00 0.00 0.00 -151.4170 -86.8992 155.4790 0.0000 0.0000 0.0000 -19.4346 -7.2058 -8.2866 0.9568 6.2286 17.4492 0.2268 -2.7409 -8.4664 0.0064 0.5159 1.4175 0.0000 0.0000 0.0000 17.9651 0.9545 -28.1501 -11.3441 -18.0994 63.8940 0.8602 -16.2206 -7.5967 -0.2242 -3.0479 8.4121 0.5638 0.3905 0.0587 1.5793 0.5294 -1.6260 1.2943 0.2603 -1.7081 -5.8514 -4.8017 -10.5009 6.4013 -6.4997 11.6553 2.4310 -3.0109 5.6426 -0.0000 0.0000 0.0000 -88.0591 -10.2133 14.4122 10.8568 -18.0684 -1.7312 -0.0000 -0.0000 32.1119 15.2454 22.8950 6.0526 -7.1250 0.0000 -0.0000 -14.2893 53.0530 -2.8776 -0.0000 0.0000 0.0000 78.6331 5.8867 26.6089 -30.6303 41.4276 -11.8245 0.0000 0.0000 6.8526 -17.8323 -25.0646 7.7604 7.1250 -0.0000 -0.0000 12.7075 -55.6905 -3.3729
0.00 0.00 0.00 -171.0360 -88.1723 175.2700 0.0000 0.0000 0.0000 -21.7694 -5.6966 -2.9010 0.7861 5.6600 15.8010 0.4184 -3.7977 -11.5092 0.0001 -0.0775 -0.2128 0.0000 0.0000 0.0000 15.8270 2.0920 -34.3740 -7.1374 -15.4465 49.3921 0.7174 -16.6048 -14.2625 -0.1132 -2.1689 5.9727 -0.7312 -0.5538 0.1943 1.8955 -0.7386 -1.8046 2.3692 -0.3502 -1.9248 -5.8266 -4.5122 -10.3324 6.1292 -6.0883 11.7705 2.3808 -2.8315 5.6142 -0.0000 0.0000 0.0000 -86.7280 -18.1380 27.9933 15.9679 -25.4770 -3.6321 -0.0000 -0.0000 22.0804 17.4375 22.2181 6.7734 -7.1250 0.0000 -0.0000 -11.8250 52.7721 -2.2872 -0.0000 0.0000 0.0000 77.9815 7.3360 28.6941 -34.8037 44.6715 -14.6752 0.0000 0.0000 6.0179 -19.4150 -24.3972 8.2831 7.1250 -0.0000 -0.0000 10.7597 -55.3393 -2.7543
0.00 0.00 0.00 -279.0060 -89.2271 286.2950 0.0000 0.0000 0.0000 -21.9124 -4.5316 7.8674 1.1260 6.7401 18.9477 0.5022 -6.7068 -12.7627 1.2498 -7.0879 -19.9759 0.0000 0.0000 0.0000 12.0227 11.9845 -32.6774 -1.1981 -6.9449 19.5524 0.7847 -15.4797 -4.9150 -0.0469 -1.3971 3.8420 -1.8352 -1.8490 -0.8623 2.6999 -2.4736 -2.1277 3.8144 -1.2035 -1.5047 -5.5992 -4.9033 -10.2259 5.5536 -6.4809 10.2191 2.1416 -3.0531 5.1113 -0.0000 0.0000 0.0000 -86.1223 -17.4708 36.1878 30.6019 -41.4038 -11.8057 -0.0000 -0.0000 19.4524 21.3333 16.8277 6.4507 -7.1250 0.0000 -0.0000 -6.2989 47.8676 -0.4473 -0.0000 0.0000 0.0000 82.5944 1.5832 21.0267 -20.8161 31.6130 -5.9532 0.0000 0.0000 4.9325 -15.2962 -26.9911 7.0758 7.1250 -0.0000 -0.0000 16.3707 -57.0570 -4.9260
0.00 0.00 0.00 -431.1130 -88.2123 439.1130 0.0000 0.0000 0.0000 -17.7739 -5.8998 4.1658 2.9133 10.5534 30.7881 -0.0481 -3.8894 1.2323 1.9384 -8.7367 -24.9750 0.0000 0.0000 0.0000 17.6364 10.4224 -29.0872 -1.5494 -7.8565 22.2791 0.4784 -12.1994 -3.3176 -0.6331 -5.0911 14.1686 0.6394 -1.8917 -1.2577 4.0288 -2.5607 -2.2389 3.7851 -1.2927 -1.4371 -6.3386 -5.5571 -10.8112 5.6982 -7.2649 10.7776 2.2182 -3.4415 5.4608 -0.0000 0.0000 0.0000 -87.1421 -7.0309 33.1950 25.6129 -36.8239 -8.6546 -0.0000 -0.0000 19.9461 19.6979 18.3028 6.4148 -7.1250 0.0000 -0.0000 -8.2544 49.1602 -0.8521 -0.0000 0.0000 0.0000 84.0248 -6.4425 16.6191 -23.3984 34.5216 -7.3628 0.0000 -0.0000 -3.3692 -16.5094 -29.6029 8.3297 7.1250 -0.0000 -0.0000 16.7776 -59.8402 -6.1821
